<svg width="16" height="16" viewBox="0 0 16 16" fill="none" xmlns="http://www.w3.org/2000/svg">
<mask id="mask0_3011_173230" style="mask-type:luminance" maskUnits="userSpaceOnUse" x="0" y="0" width="16" height="16">
<path d="M8 16C3.58144 16 0 12.4186 0 8C0 3.58144 3.58144 0 8 0C12.4186 0 16 3.58144 16 8C16 12.4186 12.4186 16 8 16Z" fill="white"/>
</mask>
<g mask="url(#mask0_3011_173230)">
<path fill-rule="evenodd" clip-rule="evenodd" d="M7.99977 7.99992L-3.31543 7.93016L-3.30519 7.51416L7.99977 7.99992Z" fill="#FEFEFF"/>
<path fill-rule="evenodd" clip-rule="evenodd" d="M8.00024 7.99985L-3.30664 7.58321L-3.28936 7.23633L8.00024 7.99985Z" fill="#FDFEFF"/>
<path fill-rule="evenodd" clip-rule="evenodd" d="M7.99998 7.99996L-3.29346 7.3062L-3.26786 6.95996L7.99998 7.99996Z" fill="#FCFDFF"/>
<path fill-rule="evenodd" clip-rule="evenodd" d="M8.00001 8.00007L-3.27295 7.02919L-3.23903 6.68359L8.00001 8.00007Z" fill="#FBFCFF"/>
<path fill-rule="evenodd" clip-rule="evenodd" d="M7.99984 7.99988L-3.24561 6.75252L-3.20337 6.4082L7.99984 7.99988Z" fill="#FAFCFF"/>
<path fill-rule="evenodd" clip-rule="evenodd" d="M8.00009 8.00003L-3.21143 6.47747L-3.16087 6.13379L8.00009 8.00003Z" fill="#F9FBFF"/>
<path fill-rule="evenodd" clip-rule="evenodd" d="M8.00015 7.99987L-3.17041 6.20211L-3.11153 5.86035L8.00015 7.99987Z" fill="#F8FAFF"/>
<path fill-rule="evenodd" clip-rule="evenodd" d="M8.00015 7.9999L-3.12305 5.92886L-3.05585 5.58838L8.00015 7.9999Z" fill="#F7FAFF"/>
<path fill-rule="evenodd" clip-rule="evenodd" d="M8.0001 8.00011L-3.06934 5.65707L-2.99318 5.31787L8.0001 8.00011Z" fill="#F6F9FF"/>
<path fill-rule="evenodd" clip-rule="evenodd" d="M7.99985 7.99987L-3.00879 5.38547L-2.92431 5.04883L7.99985 7.99987Z" fill="#F5F8FF"/>
<path fill-rule="evenodd" clip-rule="evenodd" d="M7.99988 8.00005L-2.94092 5.11621L-2.84876 4.78149L7.99988 8.00005Z" fill="#F4F8FF"/>
<path fill-rule="evenodd" clip-rule="evenodd" d="M8.00001 8.00012L-2.86719 4.84876L-2.76607 4.5166L8.00001 8.00012Z" fill="#F3F7FF"/>
<path fill-rule="evenodd" clip-rule="evenodd" d="M7.99994 7.99998L-2.78662 4.58302L-2.67718 4.25342L7.99994 7.99998Z" fill="#F2F6FF"/>
<path fill-rule="evenodd" clip-rule="evenodd" d="M7.99981 7.99987L-2.69971 4.31923L-2.58259 3.99219L7.99981 7.99987Z" fill="#F1F6FF"/>
<path fill-rule="evenodd" clip-rule="evenodd" d="M7.99997 8.00013L-2.60547 4.05773L-2.48067 3.73389L7.99997 8.00013Z" fill="#F0F5FF"/>
<path fill-rule="evenodd" clip-rule="evenodd" d="M8.00023 8.00002L-2.50537 3.79842L-2.37289 3.47778L8.00023 8.00002Z" fill="#EFF4FF"/>
<path fill-rule="evenodd" clip-rule="evenodd" d="M7.99995 8.00014L-2.39941 3.5419L-2.25861 3.2251L7.99995 8.00014Z" fill="#EEF3FF"/>
<path fill-rule="evenodd" clip-rule="evenodd" d="M8.0001 7.99989L-2.28662 3.28821L-2.13814 2.97461L8.0001 7.99989Z" fill="#EDF3FF"/>
<path fill-rule="evenodd" clip-rule="evenodd" d="M7.99986 8.00001L-2.16846 3.03745L-2.0123 2.72705L7.99986 8.00001Z" fill="#ECF2FF"/>
<path fill-rule="evenodd" clip-rule="evenodd" d="M8.00006 7.99995L-2.04346 2.78907L-1.87962 2.48315L8.00006 7.99995Z" fill="#EBF1FF"/>
<path fill-rule="evenodd" clip-rule="evenodd" d="M8.00021 8.00002L-1.91211 2.54466L-1.74123 2.24194L8.00021 8.00002Z" fill="#EAF1FF"/>
<path fill-rule="evenodd" clip-rule="evenodd" d="M7.99997 8.00001L-1.77539 2.30273L-1.59683 2.00513L7.99997 8.00001Z" fill="#E9F0FF"/>
<path fill-rule="evenodd" clip-rule="evenodd" d="M7.99983 8.00012L-1.63281 2.06476L-1.44721 1.771L7.99983 8.00012Z" fill="#E8EFFF"/>
<path fill-rule="evenodd" clip-rule="evenodd" d="M7.99979 7.9999L-1.48438 1.82966L-1.2911 1.54102L7.99979 7.9999Z" fill="#E7EFFF"/>
<path fill-rule="evenodd" clip-rule="evenodd" d="M7.99984 7.99999L-1.33008 1.59871L-1.1304 1.31519L7.99984 7.99999Z" fill="#E6EEFF"/>
<path fill-rule="evenodd" clip-rule="evenodd" d="M8 8.00014L-1.16992 1.3723L-0.963202 1.09326L8 8.00014Z" fill="#E5EDFF"/>
<path fill-rule="evenodd" clip-rule="evenodd" d="M7.99992 8.00012L-1.00488 1.14892L-0.791123 0.875L7.99992 8.00012Z" fill="#E4EDFF"/>
<path fill-rule="evenodd" clip-rule="evenodd" d="M7.99994 7.99986L-0.833984 0.929781L-0.613824 0.661621L7.99994 7.99986Z" fill="#E3ECFF"/>
<path fill-rule="evenodd" clip-rule="evenodd" d="M8.00005 8.00016L-0.657227 0.715677L-0.430667 0.452637L8.00005 8.00016Z" fill="#E2EBFF"/>
<path fill-rule="evenodd" clip-rule="evenodd" d="M8.00009 7.99988L-0.476074 0.504839L-0.243114 0.247559L8.00009 7.99988Z" fill="#E1EBFF"/>
<path fill-rule="evenodd" clip-rule="evenodd" d="M7.99988 7.99985L-0.290039 0.299372L-0.0506791 0.0478516L7.99988 7.99985Z" fill="#E0EAFF"/>
<path fill-rule="evenodd" clip-rule="evenodd" d="M7.99993 7.99998L-0.0986328 0.0985432L0.147127 -0.147217L7.99993 7.99998Z" fill="#DFE9FF"/>
<path fill-rule="evenodd" clip-rule="evenodd" d="M8.00007 7.99988L0.0986328 -0.0986823L0.349513 -0.337402L8.00007 7.99988Z" fill="#DEE9FF"/>
<path fill-rule="evenodd" clip-rule="evenodd" d="M7.9998 7.99993L0.299316 -0.289989L0.556596 -0.522949L7.9998 7.99993Z" fill="#DDE8FF"/>
<path fill-rule="evenodd" clip-rule="evenodd" d="M7.99992 8.00008L0.504883 -0.476077L0.767923 -0.702637L7.99992 8.00008Z" fill="#DCE7FF"/>
<path fill-rule="evenodd" clip-rule="evenodd" d="M7.99981 8L0.715332 -0.657281L0.983492 -0.877441L7.99981 8Z" fill="#DBE7FF"/>
<path fill-rule="evenodd" clip-rule="evenodd" d="M7.99977 8.00016L0.929688 -0.833755L1.20361 -1.04688L7.99977 8.00016Z" fill="#DAE6FF"/>
<path fill-rule="evenodd" clip-rule="evenodd" d="M8.00013 8.00009L1.14893 -1.00471L1.42797 -1.21143L8.00013 8.00009Z" fill="#D9E5FF"/>
<path fill-rule="evenodd" clip-rule="evenodd" d="M7.99991 7.99997L1.37207 -1.16995L1.65559 -1.36963L7.99991 7.99997Z" fill="#D8E5FF"/>
<path fill-rule="evenodd" clip-rule="evenodd" d="M7.99991 8.0001L1.59863 -1.32982L1.88727 -1.52246L7.99991 8.0001Z" fill="#D7E4FF"/>
<path fill-rule="evenodd" clip-rule="evenodd" d="M7.99983 7.99984L1.82959 -1.48432L2.12335 -1.66992L7.99983 7.99984Z" fill="#D6E3FF"/>
<path fill-rule="evenodd" clip-rule="evenodd" d="M7.99981 8.00016L2.06445 -1.63248L2.36205 -1.81104L7.99981 8.00016Z" fill="#D5E3FF"/>
<path fill-rule="evenodd" clip-rule="evenodd" d="M8.00001 7.99995L2.30273 -1.77541L2.60481 -1.94629L8.00001 7.99995Z" fill="#D4E2FF"/>
<path fill-rule="evenodd" clip-rule="evenodd" d="M7.99979 7.99999L2.54443 -1.91233L2.85035 -2.07617L7.99979 7.99999Z" fill="#D3E1FF"/>
<path fill-rule="evenodd" clip-rule="evenodd" d="M7.99994 7.99982L2.78906 -2.0437L3.09946 -2.19922L7.99994 7.99982Z" fill="#D2E0FF"/>
<path fill-rule="evenodd" clip-rule="evenodd" d="M8.00016 8L3.0376 -2.16832L3.3512 -2.31616L8.00016 8Z" fill="#D1E0FF"/>
<path fill-rule="evenodd" clip-rule="evenodd" d="M7.99977 8.00003L3.28809 -2.28669L3.60553 -2.42749L7.99977 8.00003Z" fill="#D0DFFF"/>
<path fill-rule="evenodd" clip-rule="evenodd" d="M8.00023 8.00001L3.54199 -2.39935L3.86327 -2.53247L8.00023 8.00001Z" fill="#CFDEFF"/>
<path fill-rule="evenodd" clip-rule="evenodd" d="M7.99994 8.00003L3.79834 -2.50557L4.12282 -2.63037L7.99994 8.00003Z" fill="#CEDEFF"/>
<path fill-rule="evenodd" clip-rule="evenodd" d="M8.00002 7.9999L4.05762 -2.60554L4.38466 -2.72266L8.00002 7.9999Z" fill="#CDDDFF"/>
<path fill-rule="evenodd" clip-rule="evenodd" d="M7.99998 8.00006L4.31934 -2.69946L4.64894 -2.80762L7.99998 8.00006Z" fill="#CCDCFF"/>
<path fill-rule="evenodd" clip-rule="evenodd" d="M7.99997 7.99983L4.58301 -2.78673L4.91517 -2.88721L7.99997 7.99983Z" fill="#CBDCFF"/>
<path fill-rule="evenodd" clip-rule="evenodd" d="M7.99999 7.99989L4.84863 -2.86731L5.18335 -2.95947L7.99999 7.99989Z" fill="#CADBFF"/>
<path fill-rule="evenodd" clip-rule="evenodd" d="M8.00005 7.99989L5.11621 -2.94091L5.45285 -3.02539L8.00005 7.99989Z" fill="#C9DAFF"/>
<path fill-rule="evenodd" clip-rule="evenodd" d="M8.00014 8.00018L5.38574 -3.00846L5.7243 -3.08398L8.00014 8.00018Z" fill="#C8DAFF"/>
<path fill-rule="evenodd" clip-rule="evenodd" d="M7.99978 7.99992L5.65674 -3.06952L5.99658 -3.13672L7.99978 7.99992Z" fill="#C7D9FF"/>
<path fill-rule="evenodd" clip-rule="evenodd" d="M7.99975 8.0001L5.92871 -3.1231L6.27047 -3.18262L7.99975 8.0001Z" fill="#C6D8FF"/>
<path fill-rule="evenodd" clip-rule="evenodd" d="M7.99991 8.00008L6.20215 -3.17048L6.54583 -3.22168L7.99991 8.00008Z" fill="#C5D8FF"/>
<path fill-rule="evenodd" clip-rule="evenodd" d="M8.0001 7.99985L6.47754 -3.21167L6.82186 -3.25391L8.0001 7.99985Z" fill="#C4D7FF"/>
<path fill-rule="evenodd" clip-rule="evenodd" d="M7.9998 8.00006L6.75244 -3.24538L7.09804 -3.2793L7.9998 8.00006Z" fill="#C3D6FF"/>
<path fill-rule="evenodd" clip-rule="evenodd" d="M8.00018 7.99998L7.0293 -3.27298L7.37554 -3.29858L8.00018 7.99998Z" fill="#C2D6FF"/>
<path fill-rule="evenodd" clip-rule="evenodd" d="M7.99991 8.00002L7.30615 -3.29342L7.65303 -3.31006L7.99991 8.00002Z" fill="#C1D5FF"/>
<path fill-rule="evenodd" clip-rule="evenodd" d="M8.00014 8.00001L7.5835 -3.30687L7.93038 -3.31519L8.00014 8.00001Z" fill="#C0D4FF"/>
<path fill-rule="evenodd" clip-rule="evenodd" d="M8.00021 7.99996L7.86133 -3.31396H8.20821L8.00021 7.99996Z" fill="#BFD4FF"/>
<path fill-rule="evenodd" clip-rule="evenodd" d="M8 7.99996L8.13888 -3.31396L8.48576 -3.30501L8 7.99996Z" fill="#BED3FF"/>
<path fill-rule="evenodd" clip-rule="evenodd" d="M8 8L8.41664 -3.30688L8.76288 -3.2896L8 8Z" fill="#BDD2FF"/>
<path fill-rule="evenodd" clip-rule="evenodd" d="M8 7.99998L8.69376 -3.29346L9.04 -3.26786L8 7.99998Z" fill="#BCD2FF"/>
<path fill-rule="evenodd" clip-rule="evenodd" d="M8 8.00001L8.97088 -3.27295L9.31648 -3.23903L8 8.00001Z" fill="#BBD1FF"/>
<path fill-rule="evenodd" clip-rule="evenodd" d="M8 7.99984L9.24672 -3.24561L9.59168 -3.20337L8 7.99984Z" fill="#BAD0FF"/>
<path fill-rule="evenodd" clip-rule="evenodd" d="M8 8.00009L9.52256 -3.21143L9.86624 -3.16087L8 8.00009Z" fill="#B9D0FF"/>
<path fill-rule="evenodd" clip-rule="evenodd" d="M8 8.00015L9.79712 -3.17041L10.1395 -3.11153L8 8.00015Z" fill="#B8CFFF"/>
<path fill-rule="evenodd" clip-rule="evenodd" d="M8 8.00015L10.071 -3.12305L10.4115 -3.05585L8 8.00015Z" fill="#B7CEFF"/>
<path fill-rule="evenodd" clip-rule="evenodd" d="M8 8.0001L10.343 -3.06934L10.6822 -2.99318L8 8.0001Z" fill="#B6CDFF"/>
<path fill-rule="evenodd" clip-rule="evenodd" d="M8 7.99985L10.6144 -3.00879L10.951 -2.92431L8 7.99985Z" fill="#B5CDFF"/>
<path fill-rule="evenodd" clip-rule="evenodd" d="M8 7.99988L10.8838 -2.94092L11.2179 -2.84876L8 7.99988Z" fill="#B4CCFF"/>
<path fill-rule="evenodd" clip-rule="evenodd" d="M8 8.00001L11.1514 -2.86719L11.4835 -2.76607L8 8.00001Z" fill="#B3CBFF"/>
<path fill-rule="evenodd" clip-rule="evenodd" d="M8 7.99994L11.417 -2.78662L11.7466 -2.67718L8 7.99994Z" fill="#B2CBFF"/>
<path fill-rule="evenodd" clip-rule="evenodd" d="M8 8.00006L11.6806 -2.69946L12.0077 -2.58234L8 8.00006Z" fill="#B1CAFF"/>
<path fill-rule="evenodd" clip-rule="evenodd" d="M8 7.99997L11.9424 -2.60547L12.2662 -2.48067L8 7.99997Z" fill="#B0C9FF"/>
<path fill-rule="evenodd" clip-rule="evenodd" d="M8 7.99998L12.201 -2.50562L12.5222 -2.37314L8 7.99998Z" fill="#AFC9FF"/>
<path fill-rule="evenodd" clip-rule="evenodd" d="M8 7.99995L12.4576 -2.39941L12.775 -2.25861L8 7.99995Z" fill="#AEC8FF"/>
<path fill-rule="evenodd" clip-rule="evenodd" d="M8 8.0001L12.7117 -2.28662L13.0253 -2.13814L8 8.0001Z" fill="#ADC7FF"/>
<path fill-rule="evenodd" clip-rule="evenodd" d="M8 7.99986L12.9626 -2.16846L13.273 -2.0123L8 7.99986Z" fill="#ACC7FF"/>
<path fill-rule="evenodd" clip-rule="evenodd" d="M8 8.00006L13.2109 -2.04346L13.5168 -1.87962L8 8.00006Z" fill="#ABC6FF"/>
<path fill-rule="evenodd" clip-rule="evenodd" d="M8 7.99997L13.4554 -1.91235L13.7581 -1.74147L8 7.99997Z" fill="#AAC5FF"/>
<path fill-rule="evenodd" clip-rule="evenodd" d="M8 7.99997L13.6973 -1.77539L13.9949 -1.59683L8 7.99997Z" fill="#A9C5FF"/>
<path fill-rule="evenodd" clip-rule="evenodd" d="M8 7.99983L13.9354 -1.63281L14.2285 -1.44721L8 7.99983Z" fill="#A8C4FF"/>
<path fill-rule="evenodd" clip-rule="evenodd" d="M8 8.00003L14.1702 -1.48413L14.4589 -1.29085L8 8.00003Z" fill="#A7C3FF"/>
<path fill-rule="evenodd" clip-rule="evenodd" d="M8 7.99984L14.4013 -1.33008L14.6848 -1.1304L8 7.99984Z" fill="#A6C3FF"/>
<path fill-rule="evenodd" clip-rule="evenodd" d="M8 8L14.6278 -1.16992L14.9069 -0.963202L8 8Z" fill="#A5C2FF"/>
<path fill-rule="evenodd" clip-rule="evenodd" d="M8 7.99992L14.8512 -1.00488L15.1245 -0.791123L8 7.99992Z" fill="#A4C1FF"/>
<path fill-rule="evenodd" clip-rule="evenodd" d="M8 7.99994L15.0701 -0.833984L15.3382 -0.613824L8 7.99994Z" fill="#A3C1FF"/>
<path fill-rule="evenodd" clip-rule="evenodd" d="M8 8.00005L15.2845 -0.657227L15.5475 -0.430667L8 8.00005Z" fill="#A2C0FF"/>
<path fill-rule="evenodd" clip-rule="evenodd" d="M8 8.00009L15.495 -0.476074L15.7523 -0.243114L8 8.00009Z" fill="#A1BFFF"/>
<path fill-rule="evenodd" clip-rule="evenodd" d="M8 7.99988L15.7005 -0.290039L15.952 -0.0506791L8 7.99988Z" fill="#A0BFFF"/>
<path fill-rule="evenodd" clip-rule="evenodd" d="M8 7.99993L15.9014 -0.0986328L16.1472 0.147127L8 7.99993Z" fill="#9FBEFF"/>
<path fill-rule="evenodd" clip-rule="evenodd" d="M8 8.00007L16.0979 0.0986328L16.3373 0.349513L8 8.00007Z" fill="#9EBDFF"/>
<path fill-rule="evenodd" clip-rule="evenodd" d="M8 8.00004L16.2899 0.299561L16.5229 0.556841L8 8.00004Z" fill="#9DBDFF"/>
<path fill-rule="evenodd" clip-rule="evenodd" d="M8 7.99992L16.4762 0.504883L16.7027 0.767923L8 7.99992Z" fill="#9CBCFF"/>
<path fill-rule="evenodd" clip-rule="evenodd" d="M8 8.00006L16.6573 0.715576L16.8774 0.983736L8 8.00006Z" fill="#9BBBFF"/>
<path fill-rule="evenodd" clip-rule="evenodd" d="M8 8.00001L16.8339 0.929932L17.047 1.20385L8 8.00001Z" fill="#9ABAFF"/>
<path fill-rule="evenodd" clip-rule="evenodd" d="M8 8.00013L17.0048 1.14893L17.2115 1.42797L8 8.00013Z" fill="#99BAFF"/>
<path fill-rule="evenodd" clip-rule="evenodd" d="M8 7.99991L17.1699 1.37207L17.3696 1.65559L8 7.99991Z" fill="#98B9FF"/>
<path fill-rule="evenodd" clip-rule="evenodd" d="M8 7.99991L17.3299 1.59863L17.5226 1.88727L8 7.99991Z" fill="#97B8FF"/>
<path fill-rule="evenodd" clip-rule="evenodd" d="M8 7.99983L17.4842 1.82959L17.6698 2.12335L8 7.99983Z" fill="#96B8FF"/>
<path fill-rule="evenodd" clip-rule="evenodd" d="M8 8.00006L17.6326 2.0647L17.8112 2.3623L8 8.00006Z" fill="#95B7FF"/>
<path fill-rule="evenodd" clip-rule="evenodd" d="M8 8.00001L17.7754 2.30273L17.9462 2.60481L8 8.00001Z" fill="#94B6FF"/>
<path fill-rule="evenodd" clip-rule="evenodd" d="M8 8.00004L17.9123 2.54468L18.0755 2.8506L8 8.00004Z" fill="#93B6FF"/>
<path fill-rule="evenodd" clip-rule="evenodd" d="M8 7.99994L18.0429 2.78906L18.199 3.09946L8 7.99994Z" fill="#92B5FF"/>
<path fill-rule="evenodd" clip-rule="evenodd" d="M8 8.00016L18.1683 3.0376L18.3162 3.3512L8 8.00016Z" fill="#91B4FF"/>
<path fill-rule="evenodd" clip-rule="evenodd" d="M8 8.00001L18.2867 3.28833L18.4275 3.60577L8 8.00001Z" fill="#90B4FF"/>
<path fill-rule="evenodd" clip-rule="evenodd" d="M8 7.99999L18.3994 3.54175L18.5318 3.86303L8 7.99999Z" fill="#8FB3FF"/>
<path fill-rule="evenodd" clip-rule="evenodd" d="M8 7.99994L18.5056 3.79834L18.6304 4.12282L8 7.99994Z" fill="#8EB2FF"/>
<path fill-rule="evenodd" clip-rule="evenodd" d="M8 8.00002L18.6054 4.05762L18.7226 4.38466L8 8.00002Z" fill="#8DB2FF"/>
<path fill-rule="evenodd" clip-rule="evenodd" d="M8 7.99998L18.6989 4.31934L18.8077 4.64894L8 7.99998Z" fill="#8CB1FF"/>
<path fill-rule="evenodd" clip-rule="evenodd" d="M8 7.99997L18.7859 4.58301L18.887 4.91517L8 7.99997Z" fill="#8BB0FF"/>
<path fill-rule="evenodd" clip-rule="evenodd" d="M8 7.99999L18.8666 4.84863L18.9594 5.18335L8 7.99999Z" fill="#8AB0FF"/>
<path fill-rule="evenodd" clip-rule="evenodd" d="M8 8.00005L18.9408 5.11621L19.0253 5.45285L8 8.00005Z" fill="#89AFFF"/>
<path fill-rule="evenodd" clip-rule="evenodd" d="M8 8.00014L19.0086 5.38574L19.0842 5.7243L8 8.00014Z" fill="#88AEFF"/>
<path fill-rule="evenodd" clip-rule="evenodd" d="M8 8.00002L19.0688 5.65698L19.1366 5.99682L8 8.00002Z" fill="#87AEFF"/>
<path fill-rule="evenodd" clip-rule="evenodd" d="M8 7.99999L19.1232 5.92896L19.1827 6.27071L8 7.99999Z" fill="#86ADFF"/>
<path fill-rule="evenodd" clip-rule="evenodd" d="M8 7.99991L19.1706 6.20215L19.2218 6.54583L8 7.99991Z" fill="#85ACFF"/>
<path fill-rule="evenodd" clip-rule="evenodd" d="M8 8.0001L19.2115 6.47754L19.2538 6.82186L8 8.0001Z" fill="#84ACFF"/>
<path fill-rule="evenodd" clip-rule="evenodd" d="M8 8.00005L19.2454 6.75269L19.2794 7.09829L8 8.00005Z" fill="#83ABFF"/>
<path fill-rule="evenodd" clip-rule="evenodd" d="M8 8.00018L19.273 7.0293L19.2986 7.37554L8 8.00018Z" fill="#82AAFF"/>
<path fill-rule="evenodd" clip-rule="evenodd" d="M8 7.99991L19.2934 7.30615L19.3101 7.65303L8 7.99991Z" fill="#81AAFF"/>
<path fill-rule="evenodd" clip-rule="evenodd" d="M8 8.00014L19.3069 7.5835L19.3152 7.93038L8 8.00014Z" fill="#80A9FF"/>
<path fill-rule="evenodd" clip-rule="evenodd" d="M8 7.99996L19.3133 7.86108V8.20796L8 7.99996Z" fill="#7FA8FF"/>
<path fill-rule="evenodd" clip-rule="evenodd" d="M8 8L19.3133 8.13888L19.305 8.48576L8 8Z" fill="#7EA7FF"/>
<path fill-rule="evenodd" clip-rule="evenodd" d="M8 8L19.3069 8.41664L19.2896 8.76288L8 8Z" fill="#7DA7FF"/>
<path fill-rule="evenodd" clip-rule="evenodd" d="M8 8L19.2934 8.69376L19.2678 9.04L8 8Z" fill="#7CA6FF"/>
<path fill-rule="evenodd" clip-rule="evenodd" d="M8 8L19.273 8.97088L19.239 9.31648L8 8Z" fill="#7BA5FF"/>
<path fill-rule="evenodd" clip-rule="evenodd" d="M8 8L19.2454 9.24672L19.2032 9.59168L8 8Z" fill="#7AA5FF"/>
<path fill-rule="evenodd" clip-rule="evenodd" d="M8 8L19.2115 9.52256L19.1603 9.86624L8 8Z" fill="#79A4FF"/>
<path fill-rule="evenodd" clip-rule="evenodd" d="M8 8L19.1706 9.79712L19.1117 10.1395L8 8Z" fill="#78A3FF"/>
<path fill-rule="evenodd" clip-rule="evenodd" d="M8 8L19.1232 10.071L19.0554 10.4115L8 8Z" fill="#77A3FF"/>
<path fill-rule="evenodd" clip-rule="evenodd" d="M8 8L19.0688 10.343L18.9933 10.6822L8 8Z" fill="#76A2FF"/>
<path fill-rule="evenodd" clip-rule="evenodd" d="M8 8L19.0086 10.6144L18.9242 10.951L8 8Z" fill="#75A1FF"/>
<path fill-rule="evenodd" clip-rule="evenodd" d="M8 8L18.9408 10.8838L18.8486 11.2179L8 8Z" fill="#74A1FF"/>
<path fill-rule="evenodd" clip-rule="evenodd" d="M8 8L18.8666 11.1514L18.7661 11.4835L8 8Z" fill="#73A0FF"/>
<path fill-rule="evenodd" clip-rule="evenodd" d="M8 8L18.7859 11.417L18.6771 11.7466L8 8Z" fill="#729FFF"/>
<path fill-rule="evenodd" clip-rule="evenodd" d="M8 8L18.6989 11.6806L18.5824 12.0077L8 8Z" fill="#719FFF"/>
<path fill-rule="evenodd" clip-rule="evenodd" d="M8 8L18.6054 11.9424L18.4806 12.2662L8 8Z" fill="#709EFF"/>
<path fill-rule="evenodd" clip-rule="evenodd" d="M8 8L18.5056 12.201L18.3725 12.5222L8 8Z" fill="#6F9DFF"/>
<path fill-rule="evenodd" clip-rule="evenodd" d="M8 8L18.3994 12.4576L18.2586 12.775L8 8Z" fill="#6E9DFF"/>
<path fill-rule="evenodd" clip-rule="evenodd" d="M8 8L18.2867 12.7117L18.1382 13.0253L8 8Z" fill="#6D9CFF"/>
<path fill-rule="evenodd" clip-rule="evenodd" d="M8 8L18.1683 12.9626L18.0122 13.273L8 8Z" fill="#6C9BFF"/>
<path fill-rule="evenodd" clip-rule="evenodd" d="M8 8L18.0429 13.2109L17.8797 13.5168L8 8Z" fill="#6B9BFF"/>
<path fill-rule="evenodd" clip-rule="evenodd" d="M8 8L17.9123 13.4554L17.7414 13.7581L8 8Z" fill="#6A9AFF"/>
<path fill-rule="evenodd" clip-rule="evenodd" d="M8 8L17.7754 13.6973L17.5968 13.9949L8 8Z" fill="#6999FF"/>
<path fill-rule="evenodd" clip-rule="evenodd" d="M8 8L17.6326 13.9354L17.447 14.2285L8 8Z" fill="#6899FF"/>
<path fill-rule="evenodd" clip-rule="evenodd" d="M8 8L17.4842 14.1702L17.2909 14.4589L8 8Z" fill="#6798FF"/>
<path fill-rule="evenodd" clip-rule="evenodd" d="M8 8L17.3299 14.4013L17.1302 14.6848L8 8Z" fill="#6697FF"/>
<path fill-rule="evenodd" clip-rule="evenodd" d="M8 8L17.1699 14.6278L16.9632 14.9069L8 8Z" fill="#6597FF"/>
<path fill-rule="evenodd" clip-rule="evenodd" d="M8 8L17.0048 14.8512L16.791 15.1245L8 8Z" fill="#6496FF"/>
<path fill-rule="evenodd" clip-rule="evenodd" d="M8 8L16.8339 15.0701L16.6138 15.3382L8 8Z" fill="#6395FF"/>
<path fill-rule="evenodd" clip-rule="evenodd" d="M8 8L16.6573 15.2845L16.4307 15.5475L8 8Z" fill="#6294FF"/>
<path fill-rule="evenodd" clip-rule="evenodd" d="M8 8L16.4762 15.495L16.2432 15.7523L8 8Z" fill="#6194FF"/>
<path fill-rule="evenodd" clip-rule="evenodd" d="M8 8L16.2899 15.7005L16.0506 15.952L8 8Z" fill="#6093FF"/>
<path fill-rule="evenodd" clip-rule="evenodd" d="M8 8L16.0979 15.9014L15.8528 16.1472L8 8Z" fill="#5F92FF"/>
<path fill-rule="evenodd" clip-rule="evenodd" d="M8 8L15.9014 16.0979L15.6506 16.3373L8 8Z" fill="#5E92FF"/>
<path fill-rule="evenodd" clip-rule="evenodd" d="M8 8L15.7005 16.2899L15.4432 16.5229L8 8Z" fill="#5D91FF"/>
<path fill-rule="evenodd" clip-rule="evenodd" d="M8 8L15.495 16.4762L15.232 16.7027L8 8Z" fill="#5C90FF"/>
<path fill-rule="evenodd" clip-rule="evenodd" d="M8 8L15.2845 16.6573L15.0163 16.8774L8 8Z" fill="#5B90FF"/>
<path fill-rule="evenodd" clip-rule="evenodd" d="M8 8L15.0701 16.8339L14.7962 17.047L8 8Z" fill="#5A8FFF"/>
<path fill-rule="evenodd" clip-rule="evenodd" d="M8 8L14.8512 17.0048L14.5722 17.2115L8 8Z" fill="#598EFF"/>
<path fill-rule="evenodd" clip-rule="evenodd" d="M8 8L14.6278 17.1699L14.3443 17.3696L8 8Z" fill="#588EFF"/>
<path fill-rule="evenodd" clip-rule="evenodd" d="M8 8L14.4013 17.3299L14.112 17.5226L8 8Z" fill="#578DFF"/>
<path fill-rule="evenodd" clip-rule="evenodd" d="M8 8L14.1702 17.4842L13.8765 17.6698L8 8Z" fill="#568CFF"/>
<path fill-rule="evenodd" clip-rule="evenodd" d="M8 8L13.9354 17.6326L13.6378 17.8112L8 8Z" fill="#558CFF"/>
<path fill-rule="evenodd" clip-rule="evenodd" d="M8 8L13.6973 17.7754L13.3952 17.9462L8 8Z" fill="#548BFF"/>
<path fill-rule="evenodd" clip-rule="evenodd" d="M8 8L13.4554 17.9123L13.1494 18.0755L8 8Z" fill="#538AFF"/>
<path fill-rule="evenodd" clip-rule="evenodd" d="M8 8L13.2109 18.0429L12.9005 18.199L8 8Z" fill="#528AFF"/>
<path fill-rule="evenodd" clip-rule="evenodd" d="M8 8L12.9626 18.1683L12.649 18.3162L8 8Z" fill="#5189FF"/>
<path fill-rule="evenodd" clip-rule="evenodd" d="M8 8L12.7117 18.2867L12.3942 18.4275L8 8Z" fill="#5088FF"/>
<path fill-rule="evenodd" clip-rule="evenodd" d="M8 8L12.4576 18.3994L12.137 18.5318L8 8Z" fill="#4F88FF"/>
<path fill-rule="evenodd" clip-rule="evenodd" d="M8 8L12.201 18.5056L11.8771 18.6304L8 8Z" fill="#4E87FF"/>
<path fill-rule="evenodd" clip-rule="evenodd" d="M8 8L11.9424 18.6054L11.6154 18.7226L8 8Z" fill="#4D86FF"/>
<path fill-rule="evenodd" clip-rule="evenodd" d="M8 8L11.6806 18.6989L11.351 18.8077L8 8Z" fill="#4C86FF"/>
<path fill-rule="evenodd" clip-rule="evenodd" d="M8 8L11.417 18.7859L11.0848 18.887L8 8Z" fill="#4B85FF"/>
<path fill-rule="evenodd" clip-rule="evenodd" d="M8 8L11.1514 18.8666L10.8166 18.9594L8 8Z" fill="#4A84FF"/>
<path fill-rule="evenodd" clip-rule="evenodd" d="M8 8L10.8838 18.9408L10.5466 19.0253L8 8Z" fill="#4984FF"/>
<path fill-rule="evenodd" clip-rule="evenodd" d="M8 8L10.6144 19.0086L10.2758 19.0842L8 8Z" fill="#4883FF"/>
<path fill-rule="evenodd" clip-rule="evenodd" d="M8 8L10.343 19.0688L10.0026 19.1366L8 8Z" fill="#4782FF"/>
<path fill-rule="evenodd" clip-rule="evenodd" d="M8 8L10.071 19.1232L9.72928 19.1827L8 8Z" fill="#4681FF"/>
<path fill-rule="evenodd" clip-rule="evenodd" d="M8 8L9.79712 19.1706L9.45408 19.2218L8 8Z" fill="#4581FF"/>
<path fill-rule="evenodd" clip-rule="evenodd" d="M8 8L9.52256 19.2115L9.17824 19.2538L8 8Z" fill="#4480FF"/>
<path fill-rule="evenodd" clip-rule="evenodd" d="M8 8L9.24672 19.2454L8.90176 19.2794L8 8Z" fill="#437FFF"/>
<path fill-rule="evenodd" clip-rule="evenodd" d="M8 8L8.97088 19.273L8.62464 19.2986L8 8Z" fill="#427FFF"/>
<path fill-rule="evenodd" clip-rule="evenodd" d="M8 8L8.69376 19.2934L8.34688 19.3101L8 8Z" fill="#417EFF"/>
<path fill-rule="evenodd" clip-rule="evenodd" d="M8 8L8.41664 19.3069L8.06912 19.3152L8 8Z" fill="#407DFF"/>
<path fill-rule="evenodd" clip-rule="evenodd" d="M8.00014 8L8.13902 19.3133H7.7915L8.00014 8Z" fill="#3F7DFF"/>
<path fill-rule="evenodd" clip-rule="evenodd" d="M7.99992 8L7.86104 19.3133L7.51416 19.305L7.99992 8Z" fill="#3E7CFF"/>
<path fill-rule="evenodd" clip-rule="evenodd" d="M7.99985 8L7.58321 19.3069L7.23633 19.2896L7.99985 8Z" fill="#3D7BFF"/>
<path fill-rule="evenodd" clip-rule="evenodd" d="M7.99996 8L7.3062 19.2934L6.95996 19.2678L7.99996 8Z" fill="#3C7BFF"/>
<path fill-rule="evenodd" clip-rule="evenodd" d="M8.00007 8L7.02919 19.273L6.68359 19.239L8.00007 8Z" fill="#3B7AFF"/>
<path fill-rule="evenodd" clip-rule="evenodd" d="M7.99988 8L6.75252 19.2454L6.4082 19.2032L7.99988 8Z" fill="#3A79FF"/>
<path fill-rule="evenodd" clip-rule="evenodd" d="M8.00003 8L6.47747 19.2115L6.13379 19.1603L8.00003 8Z" fill="#3979FF"/>
<path fill-rule="evenodd" clip-rule="evenodd" d="M7.99987 8L6.20211 19.1706L5.86035 19.1117L7.99987 8Z" fill="#3878FF"/>
<path fill-rule="evenodd" clip-rule="evenodd" d="M7.9999 8L5.92886 19.1232L5.58838 19.0554L7.9999 8Z" fill="#3777FF"/>
<path fill-rule="evenodd" clip-rule="evenodd" d="M8.00011 8L5.65707 19.0688L5.31787 18.9933L8.00011 8Z" fill="#3677FF"/>
<path fill-rule="evenodd" clip-rule="evenodd" d="M7.99987 8L5.38547 19.0086L5.04883 18.9242L7.99987 8Z" fill="#3576FF"/>
<path fill-rule="evenodd" clip-rule="evenodd" d="M7.99981 8L5.11597 18.9408L4.78125 18.8486L7.99981 8Z" fill="#3475FF"/>
<path fill-rule="evenodd" clip-rule="evenodd" d="M8.00012 8L4.84876 18.8666L4.5166 18.7661L8.00012 8Z" fill="#3375FF"/>
<path fill-rule="evenodd" clip-rule="evenodd" d="M7.99998 8L4.58302 18.7859L4.25342 18.6771L7.99998 8Z" fill="#3274FF"/>
<path fill-rule="evenodd" clip-rule="evenodd" d="M7.99987 8L4.31923 18.6989L3.99219 18.5824L7.99987 8Z" fill="#3173FF"/>
<path fill-rule="evenodd" clip-rule="evenodd" d="M8.00013 8L4.05773 18.6054L3.73389 18.4806L8.00013 8Z" fill="#3073FF"/>
<path fill-rule="evenodd" clip-rule="evenodd" d="M7.99978 8L3.79818 18.5056L3.47754 18.3725L7.99978 8Z" fill="#2F72FF"/>
<path fill-rule="evenodd" clip-rule="evenodd" d="M8.00014 8L3.5419 18.3994L3.2251 18.2586L8.00014 8Z" fill="#2E71FF"/>
<path fill-rule="evenodd" clip-rule="evenodd" d="M7.99989 8L3.28821 18.2867L2.97461 18.1382L7.99989 8Z" fill="#2D71FF"/>
<path fill-rule="evenodd" clip-rule="evenodd" d="M8.00001 8L3.03745 18.1683L2.72705 18.0122L8.00001 8Z" fill="#2C70FF"/>
<path fill-rule="evenodd" clip-rule="evenodd" d="M8.0002 8L2.78932 18.0429L2.4834 17.8797L8.0002 8Z" fill="#2B6FFF"/>
<path fill-rule="evenodd" clip-rule="evenodd" d="M7.99978 8L2.54442 17.9123L2.2417 17.7414L7.99978 8Z" fill="#2A6EFF"/>
<path fill-rule="evenodd" clip-rule="evenodd" d="M7.99976 8L2.30248 17.7754L2.00488 17.5968L7.99976 8Z" fill="#296EFF"/>
<path fill-rule="evenodd" clip-rule="evenodd" d="M8.00012 8L2.06476 17.6326L1.771 17.447L8.00012 8Z" fill="#286DFF"/>
<path fill-rule="evenodd" clip-rule="evenodd" d="M7.9999 8L1.82966 17.4842L1.54102 17.2909L7.9999 8Z" fill="#276CFF"/>
<path fill-rule="evenodd" clip-rule="evenodd" d="M8.00023 8L1.59895 17.3299L1.31543 17.1302L8.00023 8Z" fill="#266CFF"/>
<path fill-rule="evenodd" clip-rule="evenodd" d="M8.00014 8L1.3723 17.1699L1.09326 16.9632L8.00014 8Z" fill="#256BFF"/>
<path fill-rule="evenodd" clip-rule="evenodd" d="M8.00012 8L1.14892 17.0048L0.875 16.791L8.00012 8Z" fill="#246AFF"/>
<path fill-rule="evenodd" clip-rule="evenodd" d="M7.99986 8L0.929781 16.8339L0.661621 16.6138L7.99986 8Z" fill="#236AFF"/>
<path fill-rule="evenodd" clip-rule="evenodd" d="M8.00016 8L0.715677 16.6573L0.452637 16.4307L8.00016 8Z" fill="#2269FF"/>
<path fill-rule="evenodd" clip-rule="evenodd" d="M7.99988 8L0.504839 16.4762L0.247559 16.2432L7.99988 8Z" fill="#2168FF"/>
<path fill-rule="evenodd" clip-rule="evenodd" d="M7.99985 8L0.299372 16.2899L0.0478516 16.0506L7.99985 8Z" fill="#2068FF"/>
<path fill-rule="evenodd" clip-rule="evenodd" d="M8.00023 8L0.0987873 16.0979L-0.146973 15.8528L8.00023 8Z" fill="#1F67FF"/>
<path fill-rule="evenodd" clip-rule="evenodd" d="M7.99988 8L-0.0986823 15.9014L-0.337402 15.6506L7.99988 8Z" fill="#1E66FF"/>
<path fill-rule="evenodd" clip-rule="evenodd" d="M7.99993 8L-0.289989 15.7005L-0.522949 15.4432L7.99993 8Z" fill="#1D66FF"/>
<path fill-rule="evenodd" clip-rule="evenodd" d="M8.00008 8L-0.476077 15.495L-0.702637 15.232L8.00008 8Z" fill="#1C65FF"/>
<path fill-rule="evenodd" clip-rule="evenodd" d="M8 8L-0.657281 15.2845L-0.877441 15.0163L8 8Z" fill="#1B64FF"/>
<path fill-rule="evenodd" clip-rule="evenodd" d="M8.00016 8L-0.833755 15.0701L-1.04688 14.7962L8.00016 8Z" fill="#1A64FF"/>
<path fill-rule="evenodd" clip-rule="evenodd" d="M8.00009 8L-1.00471 14.8512L-1.21143 14.5722L8.00009 8Z" fill="#1963FF"/>
<path fill-rule="evenodd" clip-rule="evenodd" d="M7.99997 8L-1.16995 14.6278L-1.36963 14.3443L7.99997 8Z" fill="#1862FF"/>
<path fill-rule="evenodd" clip-rule="evenodd" d="M8.0001 8L-1.32982 14.4013L-1.52246 14.112L8.0001 8Z" fill="#1762FF"/>
<path fill-rule="evenodd" clip-rule="evenodd" d="M7.99984 8L-1.48432 14.1702L-1.66992 13.8765L7.99984 8Z" fill="#1661FF"/>
<path fill-rule="evenodd" clip-rule="evenodd" d="M8.00016 8L-1.63248 13.9354L-1.81104 13.6378L8.00016 8Z" fill="#1560FF"/>
<path fill-rule="evenodd" clip-rule="evenodd" d="M7.99995 8L-1.77541 13.6973L-1.94629 13.3952L7.99995 8Z" fill="#1460FF"/>
<path fill-rule="evenodd" clip-rule="evenodd" d="M7.99999 8L-1.91233 13.4554L-2.07617 13.1494L7.99999 8Z" fill="#135FFF"/>
<path fill-rule="evenodd" clip-rule="evenodd" d="M7.99982 8L-2.0437 13.2109L-2.19922 12.9005L7.99982 8Z" fill="#125EFF"/>
<path fill-rule="evenodd" clip-rule="evenodd" d="M7.99975 8L-2.16857 12.9626L-2.31641 12.649L7.99975 8Z" fill="#115EFF"/>
<path fill-rule="evenodd" clip-rule="evenodd" d="M7.99979 8L-2.28693 12.7117L-2.42773 12.3942L7.99979 8Z" fill="#105DFF"/>
<path fill-rule="evenodd" clip-rule="evenodd" d="M7.99977 8L-2.39959 12.4576L-2.53271 12.137L7.99977 8Z" fill="#0F5CFF"/>
<path fill-rule="evenodd" clip-rule="evenodd" d="M8.00003 8L-2.50557 12.201L-2.63037 11.8771L8.00003 8Z" fill="#0E5BFF"/>
<path fill-rule="evenodd" clip-rule="evenodd" d="M7.9999 8L-2.60554 11.9424L-2.72266 11.6154L7.9999 8Z" fill="#0D5BFF"/>
<path fill-rule="evenodd" clip-rule="evenodd" d="M8.00006 8L-2.69946 11.6806L-2.80762 11.351L8.00006 8Z" fill="#0C5AFF"/>
<path fill-rule="evenodd" clip-rule="evenodd" d="M7.99983 8L-2.78673 11.417L-2.88721 11.0848L7.99983 8Z" fill="#0B59FF"/>
<path fill-rule="evenodd" clip-rule="evenodd" d="M7.99989 8L-2.86731 11.1514L-2.95947 10.8166L7.99989 8Z" fill="#0A59FF"/>
<path fill-rule="evenodd" clip-rule="evenodd" d="M7.99989 8L-2.94091 10.8838L-3.02539 10.5466L7.99989 8Z" fill="#0958FF"/>
<path fill-rule="evenodd" clip-rule="evenodd" d="M8.00018 8L-3.00846 10.6144L-3.08398 10.2758L8.00018 8Z" fill="#0857FF"/>
<path fill-rule="evenodd" clip-rule="evenodd" d="M7.99992 8L-3.06952 10.343L-3.13672 10.0026L7.99992 8Z" fill="#0757FF"/>
<path fill-rule="evenodd" clip-rule="evenodd" d="M8.0001 8L-3.1231 10.071L-3.18262 9.72928L8.0001 8Z" fill="#0656FF"/>
<path fill-rule="evenodd" clip-rule="evenodd" d="M8.00008 8L-3.17048 9.79712L-3.22168 9.45408L8.00008 8Z" fill="#0555FF"/>
<path fill-rule="evenodd" clip-rule="evenodd" d="M7.99985 8L-3.21167 9.52256L-3.25391 9.17824L7.99985 8Z" fill="#0455FF"/>
<path fill-rule="evenodd" clip-rule="evenodd" d="M8.00006 8L-3.24538 9.24672L-3.2793 8.90176L8.00006 8Z" fill="#0354FF"/>
<path fill-rule="evenodd" clip-rule="evenodd" d="M8.00022 8L-3.27274 8.97088L-3.29834 8.62464L8.00022 8Z" fill="#0253FF"/>
<path fill-rule="evenodd" clip-rule="evenodd" d="M8.00002 8L-3.29342 8.69376L-3.31006 8.34688L8.00002 8Z" fill="#0153FF"/>
<path fill-rule="evenodd" clip-rule="evenodd" d="M7.99977 8L-3.30711 8.41664L-3.31543 8.06912L7.99977 8Z" fill="#0052FF"/>
<path fill-rule="evenodd" clip-rule="evenodd" d="M7.99996 7.99996L-3.31396 8.13884V7.86108L7.99996 7.99996Z" fill="white"/>
</g>
</svg>
